#!OML:ASF F:\VICON\USERDATA\INSTALL\rory3\rory3.ASF
:FULLY-SPECIFIED
:DEGREES
38
root -0.587612762441639 17.532779276446355 2.9523350275268507 3.9787691929420776 2.627915171268712 1.7244124107820238
lfemur -2.135736741702244 -3.8009358721563364 -27.8139156999348
ltibia 42.74837159535821
lfoot -1.7955468623844442 -6.295659578529328
ltoes -24.13664013642223
rfemur -42.157341490604765 -6.203553723680889 23.009610956929208
rtibia 92.0900899476362
rfoot 2.7720104173051627 -7.694201571476507
rtoes 7.369627811181754
lowerback 17.069927147671038 -0.297662670051391 -2.9003603604138615
upperback -0.5580867114184114 -0.7009985902252879 0.9927413653841872
thorax -7.998493802375158 -0.18457549994172645 2.3863070868506706
lowerneck -19.239709096281874 -2.8569802337380708 -2.5633727247060576
upperneck 15.740988147598053 -3.600832058347039 2.9741986197306063
head 8.193725727230477 -1.529770258588996 0.999979726413972
lclavicle -6.496965042688518e-16 -4.862092615477738e-15
lhumerus -34.520599647562996 -15.741774978110415 95.6320688603898
lradius 121.53139760506316
lwrist 48.0645234321054
lhand -31.955616115337023 -0.566219502736808
lfingers 7.125019999999998
lthumb -5.2175467996298215 29.32451971490297
rclavicle -6.476245554420299e-16 -4.861809598926301e-15
rhumerus -50.61087022490423 10.864034360441403 -97.68918657806704
rradius 113.04944380661264
rwrist -14.46782086226147
rhand -17.353135056040895 33.81724364791474
rfingers 7.125019999999998
rthumb 8.607175611008167 4.539102349310373
39
root -0.5738004624497202 17.73667354029805 3.6722275380107368 4.489095301986421 0.194073943886783 1.3023694403660901
lfemur 0.14680674172794994 -2.46056966578178 -27.60349685032558
ltibia 39.86657332212646
lfoot 5.853428000067684 -9.22254111401371
ltoes -23.000834285111843
rfemur -42.718389165245554 -3.520652476168455 24.190214535326525
rtibia 82.65520268543582
rfoot 2.0923584388160936 -6.959578559927141
rtoes 3.236780710762749
lowerback 16.07594346722775 -0.2526708639265245 -2.859137997917742
upperback -0.7537463645234599 -0.6070797609080479 1.4116648382307408
thorax -7.4511788621879385 -0.16775778200463815 2.7461721723615953
lowerneck -19.06599611387833 -2.685784578856249 -2.8441932089019195
upperneck 16.888553617007425 -3.2301590588720885 2.743113681470076
head 8.541344507864885 -1.3896635273838642 1.011135482383946
lclavicle -6.52331798725221e-16 -4.863921453335891e-15
lhumerus -34.78978085404571 -15.202457825322039 94.98203389007136
lradius 122.7071057145593
lwrist 46.445664561787325
lhand -31.599831604312843 -0.3149253760629036
lfingers 7.125019999999998
lthumb -5.251177633041147 29.244700180333908
rclavicle -6.50591202311582e-16 -4.863795137710116e-15
rhumerus -50.75073811232151 11.47737985405524 -97.51269851601093
rradius 112.67843837595876
rwrist -14.333407241086114
rhand -17.104072626053174 34.00224960458158
rfingers 7.125019999999998
rthumb 8.883573763207494 5.150281594658944
40
root -0.5451217284625232 17.92874871482991 4.74285925446757 4.41777170350071 -1.6267310710492124 1.0887669863993634
lfemur 2.5659704832915047 -1.3694163002212512 -27.60840331429396
ltibia 37.18184194297961
lfoot 14.191764336069461 -11.43298600908178
ltoes -21.968399236439232
rfemur -41.83769377205793 -2.309269578808175 25.069799850000834
rtibia 72.18835054696406
rfoot 1.5057883670624412 -5.67808853120658
rtoes 0.7679912291770175
lowerback 15.654689734612498 -0.31607697667682055 -2.617260428503445
upperback -0.6905898536735949 -0.6422008068048776 1.6120352363010646
thorax -6.904871517126104 -0.18124480982604135 2.784166484103569
lowerneck -18.798568058678786 -2.578411786026522 -3.0544872147985114
upperneck 17.797643439070878 -2.9793693334493665 2.5828794935251187
head 8.831268770244291 -1.2868116905033615 1.1089582741945956
lclavicle -6.513378372720574e-16 -4.863213983906686e-15
lhumerus -35.234991747017546 -15.222609370209483 94.31145944440959
lradius 123.1812389164644
lwrist 42.97984949478942
lhand -30.794698579869753 -1.0490142283428783
lfingers 7.125019999999998
lthumb -4.559968780671658 28.519134639635354
rclavicle -6.474993151780035e-16 -4.861978133751625e-15
rhumerus -51.02839575983078 11.95743893055988 -97.55283097853079
rradius 112.09273203442767
rwrist -14.480176799364894
rhand -16.916053315941276 34.23742605717653
rfingers 7.125019999999998
rthumb 9.023635078126427 5.478380182219174
41
root -0.5036405713002745 18.086806755451022 5.869690008436868 4.905634330440348 -1.9269168510410137 0.6746031763921538
lfemur 4.0744170716799 -1.6941986479659399 -27.25910291480877
ltibia 35.024064194129835
lfoot 21.52679502124363 -12.837622426684337
ltoes -17.26588888861508
rfemur -40.84808709521798 -2.6190719564927107 26.23876785547529
rtibia 61.121313095247444
rfoot 0.981602513039102 -4.2117880385753494
rtoes -3.7580533296328453
lowerback 14.629740951643056 -0.6459790052857267 -1.7486610734622512
upperback -0.7236652169597689 -0.9893015068905991 1.8595745147414466
thorax -6.131627648315085 -0.3394120935624649 2.589600995298143
lowerneck -18.762587542231635 -2.615914337899973 -3.0291354388954166
upperneck 18.172979425417275 -2.9798463218399074 2.281256103452421
head 8.977436246296598 -1.2878269329845695 1.0622260101388519
lclavicle -6.493449247249133e-16 -4.8617900604393155e-15
lhumerus -35.49888544425909 -15.3171530340334 93.8599186970751
lradius 123.22732195640495
lwrist 38.82990225139881
lhand -30.67215671880863 -1.3974789540161918
lfingers 7.125019999999998
lthumb -4.176284522180907 28.433447389436896
rclavicle -6.445874006343327e-16 -4.860026544433895e-15
rhumerus -51.43876338197939 12.305609803394423 -97.85530380749454
rradius 111.74397508239319
rwrist -15.820019352579207
rhand -16.62334552320757 34.2387312429704
rfingers 7.125019999999998
rthumb 9.166710368267902 5.0552253972060095
